<svg class="icon" style="width: 1em;height: 1em;vertical-align: middle;fill: currentColor;overflow: hidden;" viewBox="0 0 1024 1024" version="1.1" xmlns="http://www.w3.org/2000/svg" p-id="1233"><path d="M512 970.126222A458.126222 458.126222 0 1 0 53.930667 512a458.126222 458.126222 0 0 0 458.183111 458.126222zM512 1024A512 512 0 1 1 512 0a512 512 0 1 1 0 1024z m99.612444-782.279111c24.689778 24.348444 36.977778 53.873778 36.977778 88.632889H395.320889c0-34.702222 12.344889-64.284444 36.977778-88.632889 24.689778-24.462222 54.613333-36.636444 89.713777-36.579556 35.100444 0 65.024 12.231111 89.656889 36.579556z m227.043556 314.026667v0.113777a25.429333 25.429333 0 0 1-25.315556 24.917334h-88.689777c0 44.657778-8.817778 82.488889-26.510223 113.493333l82.375112 81.806222a25.031111 25.031111 0 1 1-35.726223 35.271111l-78.392889-77.084444a79.644444 79.644444 0 0 1-5.916444 5.12 226.645333 226.645333 0 0 1-16.611556 11.150222 185.628444 185.628444 0 0 1-58.197333 25.6c-12.515556 3.413333-25.486222 5.12-38.456889 5.12V430.762667h-50.631111v350.606222c-13.596444 0-27.079111-1.763556-40.220444-5.290667a160.768 160.768 0 0 1-34.417778-12.913778c-9.671111-5.12-18.375111-10.183111-26.168889-15.246222a135.566222 135.566222 0 0 1-17.237333-12.743111l-5.916445-5.461333-72.476444 81.009778a25.429333 25.429333 0 0 1-19.000889 8.192 25.941333 25.941333 0 0 1-17.066667-6.257778 25.144889 25.144889 0 0 1-8.078222-17.408 24.632889 24.632889 0 0 1 6.144-18.204445l79.985778-88.746666c-15.36-29.809778-22.983111-65.536-22.983111-107.292445H230.456889a24.632889 24.632889 0 0 1-17.806222-7.395555 23.665778 23.665778 0 0 1-7.509334-17.635556 25.486222 25.486222 0 0 1 25.315556-25.031111h88.746667V415.800889L250.595556 348.16a24.462222 24.462222 0 0 1 0-35.271111 25.144889 25.144889 0 0 1 35.669333 0l68.494222 67.697778h334.165333l68.494223-67.697778a25.144889 25.144889 0 0 1 35.669333 0 24.462222 24.462222 0 0 1 0 35.271111l-68.494222 67.697778v115.086222h88.689778a24.632889 24.632889 0 0 1 17.806222 7.395556c4.835556 4.551111 7.566222 10.922667 7.509333 17.578666v-0.113778z" fill="#04A3F5" p-id="1234"></path></svg>