<svg class="icon" style="width: 1em;height: 1em;vertical-align: middle;fill: currentColor;overflow: hidden;" viewBox="0 0 1024 1024" version="1.1" xmlns="http://www.w3.org/2000/svg" p-id="998"><path d="M512.452608 67.584c-245.383168 0-444.341248 198.95296-444.341248 444.397568 0 245.466112 198.95808 444.43648 444.341248 444.43648s444.336128-198.969344 444.336128-444.43648C956.788736 266.53696 757.835776 67.584 512.452608 67.584zM657.359872 667.904l-12.959744 12.920832c-10.799104 10.793984-28.969984 11.266048-40.308736 1.094656L455.218176 553.933824c-11.387904-10.19392-20.015104-31.020032-19.254272-46.27968l15.510528-245.699584c0.755712-15.238144 13.887488-27.70944 29.180928-27.70944l18.276352 0c15.29856 0 28.3648 12.471296 29.131776 27.70944l12.688384 201.208832c0.760832 15.29856 9.710592 37.086208 19.854336 48.485376l97.887232 115.903488C668.63616 638.927872 668.147712 657.093632 657.359872 667.904z" fill="#F5A02C" p-id="999"></path></svg>